<svg id="Lag_1" data-name="Lag 1" xmlns="http://www.w3.org/2000/svg" viewBox="0 0 953 957"><defs><style>.cls-1,.cls-4{fill:#fefff2;}.cls-2,.cls-3{fill:none;}.cls-3{stroke:#97a671;}.cls-3,.cls-4,.cls-5{stroke-miterlimit:10;}.cls-4,.cls-5{stroke:#998675;}.cls-5{fill:#f5e98a;}.cls-15,.cls-16,.cls-6,.cls-9{fill:#97a671;}.cls-7{font-size:17.55px;}.cls-21,.cls-7,.cls-8{fill:#fff;}.cls-15,.cls-16,.cls-21,.cls-7,.cls-8,.cls-9{font-family:Vidaloka-Regular, Vidaloka ;}.cls-15,.cls-8{font-size:26.87px;}.cls-9{font-size:17.4px;}.cls-10{letter-spacing:0em;}.cls-11{letter-spacing:-0.02em;}.cls-12{letter-spacing:0em;}.cls-13{letter-spacing:0em;}.cls-14{letter-spacing:-0.01em;}.cls-16{font-size:16.98px;}.cls-17{letter-spacing:-0.02em;}.cls-18{letter-spacing:-0.01em;}.cls-19{letter-spacing:0em;}.cls-20{letter-spacing:0em;}.cls-21{font-size:17.7px;}.cls-22{letter-spacing:-0.04em;}.cls-23{letter-spacing:0em;}.cls-24{letter-spacing:0em;}.cls-25{letter-spacing:0em;}.cls-26{letter-spacing:0.01em;}.cls-27{letter-spacing:0em;}.cls-28{letter-spacing:-0.01em;}.cls-29{letter-spacing:0em;}.cls-30{letter-spacing:-0.04em;}.cls-31{letter-spacing:-0.01em;}.cls-32{letter-spacing:0em;}</style></defs><g id="Rectangle_147869" data-name="Rectangle 147869"><rect class="cls-1" width="957" height="957"/><rect class="cls-2" x="4.39" y="4.39" width="948.22" height="948.22"/></g><path class="cls-3" d="M483.77,906.75c6.85-44.51-.41-89.82-1.77-134.83-.35-11.38-.32-22.78-.28-34.17q.34-116.71.68-233.43"/><path class="cls-3" d="M418.77,305.6a152.75,152.75,0,0,1,45,76.9c2.13,9,3.43,18.24,4.73,27.43l4,28.13c3.79,26.88,7.58,53.77,9.77,80.83"/><path class="cls-3" d="M462.85,160.06c17.13,58.66,31.61,118.73,32.54,179.83.16,10.84-.1,21.68-.36,32.52l-1,43c-.35,14.48-.7,29-2.95,43.32-2.9,18.4-8.93,36.46-8.71,55.09"/><path class="cls-4" d="M411.42,325.41a55.35,55.35,0,0,0,.2,9.81c.74,4.54,3,8.71,4,13.21.92,4.14.75,8.48,1.76,12.6a22.7,22.7,0,0,0,5.55,10.2c1,1.08,2.3,2.12,3.77,2.06,2.08-.09,3.38-2.2,5-3.5s4.1-2,5.84-3.4c3.24-2.69,3.41-7.49,3.89-11.68.4-3.38,1.17-6.78.66-10.14-.7-4.68-3.74-8.61-6.41-12.5A101.25,101.25,0,0,1,427,316.8c-1.64-3.58-3.13-7.34-5.86-10.17-2.92-3-10.21-5.91-11.21.23-.45,2.74.84,6.2,1.11,9A80.6,80.6,0,0,1,411.42,325.41Z"/><path class="cls-4" d="M391.92,350.83c-.74,2.24-1.57,4.7-.67,6.87.32.78.84,1.46,1.18,2.22,1.2,2.69,0,5.78,0,8.72a3.42,3.42,0,0,0,.49,2.06c.68.94,2,1.11,3,1.77,2,1.4,2.11,4.79,4.36,5.8a3.61,3.61,0,0,0,2.51.07c3.22-1,4.52-4.77,5.35-8a128.53,128.53,0,0,0,3.6-17.55,63.93,63.93,0,0,0,.39-7.58c0-2.67-.21-5.34-.4-8l-2.07-29.45c-.13-1.77-.34-3.72-1.67-4.88-2.72-2.37-8.86-4.51-10.3-.18-1.49,4.53-.29,11.21-.52,16A133.85,133.85,0,0,1,391.92,350.83Z"/><path class="cls-4" d="M376.09,328.29c-5.51,9.68-10.37,20.3-10,31.43a6,6,0,0,0,1.13,3.85,6.51,6.51,0,0,0,2.23,1.43l6.95,3.21a8.82,8.82,0,0,0,2.19.78c2.84.47,5.36-1.89,6.82-4.37a39,39,0,0,0,3.28-7.89,148.66,148.66,0,0,0,6-22.76c1.49-9.29,1.5-18.75,1.49-28.17a10.54,10.54,0,0,0-.87-5.14c-1.65-3-3.85-2.36-5,0-1.54,3-2.45,6.45-4,9.53C383.24,316.39,379.51,322.26,376.09,328.29Z"/><path class="cls-4" d="M365,295.84c-2.44,0-5.06-.48-7.2.68a10.92,10.92,0,0,0-3.07,3,74.64,74.64,0,0,1-17.17,15.62c-2.35,1.55-5,3.23-5.69,6a16.91,16.91,0,0,1-.51,2.24c-.69,1.69-2.73,2.67-3,4.47-.36,2,1.66,3.6,2.84,5.31,2.51,3.65,1.53,9.3,4.95,12.12a7.24,7.24,0,0,0,7.19.75,16.56,16.56,0,0,0,5.94-4.62C354,336,357.6,329.44,363,324.62c3.84-3.42,8.51-5.9,12-9.7s5.76-9.16,9.85-12.61a44,44,0,0,0,3.88-3.18c4.82-5.05-.64-8.38-5.44-7.88C377,291.9,371.36,295.74,365,295.84Z"/><path class="cls-4" d="M410.16,305.08a62.78,62.78,0,0,1,7.36,12.06c.07.16.2.35.37.33s.07-.39-.05-.26"/><path class="cls-4" d="M377.11,364.67a10.11,10.11,0,0,0,2.76-9.92"/><path class="cls-4" d="M394.47,303.05q-2,3-3.76,6"/><path class="cls-4" d="M425.49,368.16a5.13,5.13,0,0,1,4.29-1.71"/><path class="cls-4" d="M402.18,367.5a35.22,35.22,0,0,1-.6,6"/><path class="cls-4" d="M404.68,301.3a59.59,59.59,0,0,0-1.12,8.92c-.11,2.23,0,4.68,1.43,6.37"/><path class="cls-4" d="M337.75,338.49a51.17,51.17,0,0,0,6.75-6.33"/><path class="cls-4" d="M371.79,302c2.11.21,4-1.19,5.83-2.26,3-1.75,6.68-2.78,10-1.63"/><path class="cls-4" d="M331.18,331.87a10.81,10.81,0,0,1,4.17-2.6"/><path class="cls-4" d="M432.68,313.2a70.08,70.08,0,0,1,7.93,4.37c2.66,1.91,4.77,4.46,7,6.82a67.91,67.91,0,0,0,22.72,15.47,15,15,0,0,0,7,1.54c2.4-.21,4.84-1.72,5.43-4,.4-1.61-.09-3.43.72-4.88,1.05-1.87,3.82-2.28,4.76-4.21,1-2.12-.76-4.49-2.51-6.06a56,56,0,0,0-30.4-13.84c-3.83-.47-7.74-.55-11.45-1.62-5.09-1.48-9.56-4.77-14.75-5.79-3.41-.67-9.09.61-6.32,4.95C424.81,309,429.56,311.52,432.68,313.2Z"/><path class="cls-4" d="M461.07,292.33a79.7,79.7,0,0,1,13.84,3.4,39.34,39.34,0,0,1,12.52,7.69c.65.59,1.34,1.45,1,2.25-.22.5-.77.75-1.19,1.09-3.22,2.59,1.16,8.92-2,11.63-1.36,1.19-3.45.89-5.16.31-5.55-1.9-10.13-6-15.69-7.88-4.45-1.48-9.24-1.41-13.88-2.06-8.51-1.19-16.45-4.82-24.26-8.41-.86-.39-1.84-1-1.92-1.9-.11-1.3,1.48-1.95,2.69-2.45,2.74-1.13,4.1-3.17,5.47-5.64,1.71-3.06,2.26-2.81,5.88-2.16Z"/><path class="cls-4" d="M371.41,281.14c-3.38.45-6.71,1.2-10.1,1.55-5.91.61-11.86,0-17.79,0s-12,.51-17.34,3.19-9.64,7.87-9.89,13.8a17.86,17.86,0,0,1,10.77,12.56,6.6,6.6,0,0,0,.73,2.22,3.84,3.84,0,0,0,2.11,1.45c4.21,1.32,8.36-2,11.57-5l11.17-10.56A15,15,0,0,1,364.1,295l9.61-1a28,28,0,0,0,8.18-1.72c3.48-1.51,8.52-7.18,4.36-10.82C383.3,278.91,374.8,280.69,371.41,281.14Z"/><path class="cls-4" d="M360.7,261.56a145.46,145.46,0,0,0-15.2-1c-6.57-.15-13.37-.05-19.41,2.55a9.65,9.65,0,0,0-4.43,3.27,4.46,4.46,0,0,0,0,5.21c.64.75,1.58,1.2,2.16,2,1.93,2.62-1.11,7,1.1,9.37a4,4,0,0,0,1.75,1,14.63,14.63,0,0,0,5.64.32l50.64-3.68a9.58,9.58,0,0,0,3.87-.84c2.34-1.25,3.67-4.91,3.29-7.48-.49-3.26-4.66-4-7.63-5.16A93.47,93.47,0,0,0,360.7,261.56Z"/><path class="cls-4" d="M455.37,276.13c5.85-1.41,11.7-2.82,17.59-4,5.43-1.13,11.24-2.08,16.39,0,.83,1.62-.41,3.63.09,5.39a7.26,7.26,0,0,0,1.06,1.9c1.77,2.76,1.86,7.11-1,8.7-1.78,1-4,.55-6,1-3.12.76-5.27,3.68-8.25,4.89s-6.63.5-9.89-.28l-25.65-6.1a8.15,8.15,0,0,1-2.37-.83,4.11,4.11,0,0,1-1.8-4c.44-2.45,2-2.32,4.15-2.83C444.93,278.67,450.15,277.38,455.37,276.13Z"/><path class="cls-4" d="M470.53,254.08a20.19,20.19,0,0,1,5.22-2.44c3.64-.9,7.47.3,11.21,0,1.82-.14,3.7-.62,5.44,0s3.08,2.81,1.94,4.24c-.86,1.07-2.46,1-3.83,1.07s-3.05.72-3.07,2.09c0,1.2,1.3,2,1.59,3.17.37,1.48-1,2.79-1.39,4.27-.29,1.09-.05,2.33-.63,3.3-1,1.72-3.56,1.29-5.55,1-7.75-1.1-15,3.62-22.72,5.18-4.22.85-8.66.76-12.69,2.25-2.26.84-4.44,2.18-6.85,2.14-3.59-.06-5.38-3.59-2.87-6,2.83-2.77,7.81-4.64,11.23-6.66Z"/><path class="cls-4" d="M449.85,236.2c5.84-7.49,12.67-14.86,21.71-17.76a9.06,9.06,0,0,1,4.6-.49,3.92,3.92,0,0,1,3.15,3.06c.19,1.46-.71,2.81-1.29,4.16a10.73,10.73,0,0,0,0,8.43,6.59,6.59,0,0,1,.9,2.91c-.09,1.35-1.2,2.36-1.94,3.49-1.73,2.64-1.47,6.11-2.71,9s-3.89,5-6.43,6.9c-8.22,6.23-16.66,12.58-26.51,15.63-2.21.68-4.61,1.18-6.81.49-8.52-2.71-.35-12.71,2.17-16.82A203.64,203.64,0,0,1,449.85,236.2Z"/><path class="cls-4" d="M422,229.26a47.69,47.69,0,0,1,2.91-10.47,14.06,14.06,0,0,1,5.65-6.84c2.63-1.47,6.21-1.49,8.44.52a11,11,0,0,1,2.09,2.91c3.68,6.72,6,14.54,4.54,22.06-1,5-3.63,9.52-6.27,13.9q-4.5,7.43-9.21,14.72a2.92,2.92,0,0,1-3.94,1.46,17.75,17.75,0,0,1-5.55-1.87c-5.41-3.3-2.57-11.5-1.89-16.56Q420.06,239.13,422,229.26Z"/><path class="cls-4" d="M405.46,227.84a33.69,33.69,0,0,1-1.08-6,67.09,67.09,0,0,1,.59-17.9c.29-1.77,1-3.9,2.82-4.13,1.28-.16,2.41.8,3.66,1.13a3.93,3.93,0,0,0,4.12-1.56c1-1.42,1.46-3.79,3.17-3.64a2.76,2.76,0,0,1,1.35.66c4.6,3.56,6.45,9.61,7.36,15.36a6.73,6.73,0,0,1,.06,2.49,9.25,9.25,0,0,1-2,3.29c-2.56,3.35-3.52,7.63-4.4,11.77-1.25,5.84-2.51,11.7-3.39,17.61-.37,2.45.06,14.53-2.49,15.49-2.21.82-2.54-13.81-3-16C410.94,239.79,407.35,234.22,405.46,227.84Z"/><path class="cls-4" d="M381.27,216.1a60.78,60.78,0,0,1-2.83-5.65c2.35-.18,5.12-.63,6.14-2.75.65-1.35.34-2.94.35-4.44s.62-3.27,2.09-3.6,2.78,1,3.69,2.27a135.36,135.36,0,0,1,10.22,16.47,97.43,97.43,0,0,1,6.61,15c3.12,9.43,4.22,19.4,5.29,29.27-.09-.85-2.75-3.89-3.27-5a61.38,61.38,0,0,0-3.16-6,128.23,128.23,0,0,0-8.26-12C392.3,232,386,224.54,381.27,216.1Z"/><path class="cls-4" d="M366,235.73c1.73-2.26,5.27-.71,8.11-.85s5.26-2.19,7.66-3.81,5.6-2.87,8.08-1.38a8.6,8.6,0,0,1,2.25,2.25,192.05,192.05,0,0,1,15.73,23.9A7.72,7.72,0,0,1,409,259a2.71,2.71,0,0,1-1.51,2.75c-1.36.51-2.93-.55-4.29,0-1,.37-1.51,1.42-2.45,1.81-1.22.52-13.46-12.78-15.47-14.44A134.47,134.47,0,0,0,366,235.73Z"/><path class="cls-4" d="M339.32,249.8c-2.05-1.45-4.19-3-5.29-5.25-1.52-3.12-.7-6.83.15-10.2a8.12,8.12,0,0,1,1.27-3.11c1.57-2,4.51-2.05,7-1.92,5.64.29,11.42.69,16.57,3a47.33,47.33,0,0,1,7.16,4.3c11.48,7.84,23.08,15.8,32.3,26.21q-2.5,3.33-5.15,6.56a4.43,4.43,0,0,1-1.39,1.27c-1.21.61-2.65.05-3.89-.51-9.14-4.17-17.84-7.94-28-8.46C352.2,261.3,345.55,254.17,339.32,249.8Z"/><path class="cls-5" d="M403,261.54a27.22,27.22,0,0,0-17.46,24.59,10.81,10.81,0,0,0,1,5.13,11,11,0,0,0,2.34,2.85,30.17,30.17,0,0,0,42.86-1.87,11.64,11.64,0,0,0,2-2.79,14.76,14.76,0,0,0,1.07-4.61l.69-5.77a10.91,10.91,0,0,0,.05-3.56,9,9,0,0,0-2.59-4.25c-3.26-3.31-7.48-5.51-11.74-7.36-4.58-2-9.56-3.68-14.49-2.89-5.1.82-9.39,4.15-13.41,7.39"/><path class="cls-4" d="M463.44,147.65c-1.68,1.28-3,3.36-5.07,3.63a17.7,17.7,0,0,0-2.31.11c-1.33.33-2.16,1.65-3.38,2.27-1.49.74-3.27.32-4.9,0a41,41,0,0,0-4.95-.72c-1.23-.1-2.86.14-3.09,1.36a2.26,2.26,0,0,0,.37,1.48c1.91,3.45,6.08,5.07,10,5.29s7.85-.67,11.78-.94a18.45,18.45,0,0,0,3.86-.48,14.85,14.85,0,0,0,3.41-1.69c2.65-1.61,12.76-5.36,9-9.25C475,145.36,467.06,144.87,463.44,147.65Z"/><path class="cls-4" d="M514.63,130.11a14.5,14.5,0,0,1,5.58-2.84c1.48-.26,3-.06,4.51-.28,3.77-.56,7.34-3.78,10.92-2.5,2.19.78,3.61,3.09,5.84,3.74s4.67-.36,6.54.84c2.35,1.51,1.72,5.21.09,7.48-2.35,3.25-6,5.3-9.72,6.85a56.68,56.68,0,0,1-24.55,4.22,51.3,51.3,0,0,1-12.49-2c-3.94-1.21-3-3.69-.22-6C505.36,136.2,510.16,133.27,514.63,130.11Z"/><path class="cls-4" d="M487.41,128.49a214.84,214.84,0,0,1,17.14-17.27L510,106.1c3.18-3,7-6.18,11.34-5.52a3.52,3.52,0,0,1,2.93,2,5.76,5.76,0,0,0,.53,1.66c.61.82,1.9.63,2.78.12a6.83,6.83,0,0,1,2.73-1.31,2.9,2.9,0,0,1,2.73,2.2,7,7,0,0,1-.19,3.74,26.1,26.1,0,0,1-5.59,10.51,51.4,51.4,0,0,1-6.24,5.73l-6.76,5.55a78.75,78.75,0,0,1-7.26,5.51A79.12,79.12,0,0,1,498,141l-8.19,3.86a33.87,33.87,0,0,1-6,2.4,17.52,17.52,0,0,1-9.55-.28c-4.22-1.33-3.07-2.9-.1-4.87C479.45,138.61,483.29,133.32,487.41,128.49Z"/><path class="cls-4" d="M465.21,135.9c1.22-2.66,3.22-4.86,5-7.17,10.26-13.16,14.28-30.31,24.38-43.6a11.83,11.83,0,0,1,3.87-3.65,4.71,4.71,0,0,1,5.06.3,6.92,6.92,0,0,1,1.43,2l2.59,4.62A15.15,15.15,0,0,1,509,91.51a11.45,11.45,0,0,1,0,5.52c-1.25,6.22-5.15,11.54-9.07,16.52q-9,11.46-19,22.17c-3.33,3.59-8.54,10.2-13.71,11C461.67,147.66,463.94,138.66,465.21,135.9Z"/><path class="cls-4" d="M457.68,82c0-1.12.25-2.54,1.34-2.81a4.57,4.57,0,0,1,1.88.27c1.85.3,3.48-1.25,4.44-2.86s1.68-3.46,3.2-4.54c2.14-1.52,5.32-.87,7.16,1a9.73,9.73,0,0,1,2.37,7.27,33.7,33.7,0,0,1-1.66,7.66,132.4,132.4,0,0,0-4.05,19.18c-.53,3.87-1.08,8.14-4,10.7-.7-3.58-1.49-7.35-3.92-10.07-2.86-3.2-6.83-4.57-7-9.3C457.3,93,457.6,87.44,457.68,82Z"/><path class="cls-4" d="M467.47,118.21a28.88,28.88,0,0,0-3.22-9.31,19.89,19.89,0,0,0-4.42-6.34,7.93,7.93,0,0,0-7.19-2c-1.23.35-2.53,1.11-3.71.58a3.47,3.47,0,0,1-1.38-1.36c-2.38-3.52-4.3-8-8.36-9.26a2.67,2.67,0,0,0-1.4-.13,2.94,2.94,0,0,0-1.6,1.27c-2.32,3.18-2.83,7.4-2.23,11.29s2.19,7.54,3.77,11.15l5.36,12.23c3.33,7.6,6.68,15.24,11.26,22.16,2.18,3.3,6.23,2.93,8.44-.44,1.33-2,.28-4.61.44-6.89C463.76,133.34,468.44,126.22,467.47,118.21Z"/><path class="cls-4" d="M433,130.51a62.47,62.47,0,0,1-7.27-9.87l-6.63-10.38a91.38,91.38,0,0,1-5.09-8.64,46.34,46.34,0,0,0-3.86-7.23,3.73,3.73,0,0,0-2.32-1.69c-1.82-.21-3,1.87-4.72,2.52-1.38.53-3,.06-4.37.47-2.34.68-3.37,3.34-4.08,5.67-.86,2.86-1.74,5.8-1.45,8.78a18.15,18.15,0,0,0,2.94,7.62c6.16,10,16.06,17.1,25.69,23.87a67.45,67.45,0,0,0,10,6.17,65.66,65.66,0,0,0,8.53,3.07c2.93.91,10,3.61,12.63,1,2.06-2,.51-5.52-1.23-7C445.79,139.72,438.53,136.28,433,130.51Z"/><path class="cls-4" d="M422.41,142.75c-7.8-1.42-15-4.95-22.15-8.45l-17.35-8.53a60.66,60.66,0,0,0-6.65-3,51.16,51.16,0,0,0-6.32-1.68c-1.95-.41-4-.77-5.9-.07s-3.34,2.84-2.59,4.69,3.09,2.55,3.57,4.4c.28,1.11-.2,2.25-.26,3.39-.14,2.83,2.34,5.07,4.76,6.56a55.15,55.15,0,0,0,9,4.3c2.69,1,5.41,2,8.13,2.94l9.6,3.33a28.43,28.43,0,0,0,15.29,2.06l14.3-1.09a38.32,38.32,0,0,0,6.83-.94,27.43,27.43,0,0,0-15.19-9.88"/><path class="cls-4" d="M385.06,146.08c-3.95.41-7.29,3-10.36,5.53a17.33,17.33,0,0,0-4,4.17c-1.42,2.35-1.63,5.19-1.81,7.92-.16,2.37-.25,5,1.15,6.85a6.53,6.53,0,0,0,5.3,2.42,13.61,13.61,0,0,0,5.78-1.57c9-4.26,15.71-12.73,25.23-15.52,5.45-1.6,11.51-1.23,16.47-4-7.77-3.41-16.91.46-25.21-1.29-5.93-1.24-11.32-5.33-17.36-4.89"/><path class="cls-3" d="M483,497.89c7.79-2.07,14.21-7.43,20.79-12.08,24-17,53-25.79,82.12-29.66,5.39-.72,10.83-1.28,16-2.76,2.09-.6,4.13-1.34,6.18-2.08l31.52-11.43"/><path class="cls-6" d="M576.27,438.06c5.26-2,10.92-2.91,15.91-5.5,5.24-2.72,9.39-7.1,13.44-11.41a32.39,32.39,0,0,1-19.74,26.49c-5.85,2.35-12.24,2.91-18.34,4.48-4.69,1.2-16.39,7.77-8.73-1.6A41.74,41.74,0,0,1,576.27,438.06Z"/><path class="cls-6" d="M621.19,429.08C628.31,422,637,416.15,646.86,414A35,35,0,0,1,630,437.67a71.58,71.58,0,0,1-9.43,4.19c-4.36,1.69-10.56,6.76-14.89,7A96.64,96.64,0,0,1,621.19,429.08Z"/><path class="cls-6" d="M618,463.82c9.08,6.49,16.94,14.52,24.75,22.5-.44,1.71-2.93,1.48-4.58.84q-6-2.34-12-5c-4.53-2-9.06-4.12-12.8-7.36-5.25-4.54-9.88-12.13-10.88-19C606.38,454.58,614.62,461.44,618,463.82Z"/><path class="cls-6" d="M637.07,441.11c3-3.27,7.85-4.22,12.23-3.65s8.49,2.45,12.6,4.08c10.63,4.21,21.78,6.9,32.9,9.56a51.19,51.19,0,0,0-44.53-15.17c-.37.05-.84.07-1-.25s.54-.65.51-.28"/><path class="cls-6" d="M658.15,421.79c.79-4.93,1-10,2.46-14.76,1.93-6.13,5.95-11.35,9.89-16.42l-.93,9.7c-.26,2.74-.52,5.49-1,8.19-1.71,8.85-6.65,18.9-14.1,24.25A36.34,36.34,0,0,0,658.15,421.79Z"/><path class="cls-6" d="M507.22,483.08l26.37,2.42a17.44,17.44,0,0,0,5.35-.05,30.46,30.46,0,0,0,4.39-1.62c7.51-2.9,15.94-1.25,23.71.87,11.87,3.23,24.78,8.71,29.26,20.17l-13.65-6.44c-3.16-1.48-6.56-3-10-2.44-2,.34-3.89,1.39-5.91,1.76-10.33,1.93-18.11-13.54-28.34-11.16"/><path class="cls-6" d="M675.43,409.9c7.88-9,21.68-12.77,26.09-23.86,0,7-1.7,14.26-5.83,20-3.67,5.08-8.92,8.56-14.36,11.49-3.57,1.91-12.36,8.14-16.22,6.36C667,419.49,672.1,413.68,675.43,409.9Z"/><rect class="cls-6" x="508" y="319.37" width="209.2" height="83.68" rx="10.88"/><text class="cls-7" transform="translate(537.27 354.5)">Find et afslappende <tspan x="7.23" y="21.06">sted omkring dig. </tspan></text><rect class="cls-6" x="651" y="284" width="64" height="29" rx="3.92"/><text class="cls-8" transform="translate(669.35 307.3)">01</text><path class="cls-3" d="M482.2,608.89c-7.79-2.07-14.2-7.43-20.79-12.08-24-17-53-25.79-82.12-29.66-5.39-.72-10.82-1.28-16.05-2.76-2.09-.6-4.13-1.34-6.17-2.08l-31.53-11.43"/><path class="cls-6" d="M388.9,549.06c-5.25-2-10.92-2.91-15.9-5.5-5.24-2.72-9.4-7.1-13.45-11.41a32.41,32.41,0,0,0,19.74,26.49c5.85,2.35,12.24,2.91,18.35,4.48,4.68,1.2,16.39,7.77,8.72-1.6A41.61,41.61,0,0,0,388.9,549.06Z"/><path class="cls-6" d="M344,540.08c-7.13-7.1-15.85-12.93-25.68-15.06a35,35,0,0,0,16.92,23.65,71,71,0,0,0,9.43,4.19c4.35,1.69,10.55,6.76,14.89,7A97.33,97.33,0,0,0,344,540.08Z"/><path class="cls-6" d="M347.22,574.82c-9.08,6.49-16.94,14.52-24.74,22.5.43,1.71,2.93,1.48,4.57.84q6-2.34,12-5c4.52-2,9.06-4.12,12.79-7.36,5.25-4.54,9.89-12.13,10.88-19.05C358.8,565.58,350.55,572.44,347.22,574.82Z"/><path class="cls-6" d="M328.11,552.11c-3-3.27-7.85-4.22-12.24-3.65s-8.48,2.45-12.6,4.08c-10.62,4.21-21.78,6.9-32.89,9.56a51.17,51.17,0,0,1,44.52-15.17c.37.05.84.07,1-.25s-.54-.65-.51-.28"/><path class="cls-6" d="M307,532.79c-.8-4.93-1-10-2.47-14.76-1.93-6.13-5.95-11.35-9.88-16.42l.92,9.7c.26,2.74.52,5.49,1,8.19,1.71,8.85,6.65,18.9,14.1,24.25A36.33,36.33,0,0,1,307,532.79Z"/><path class="cls-6" d="M458,594.08l-26.37,2.42a17.38,17.38,0,0,1-5.34,0,30.58,30.58,0,0,1-4.4-1.62c-7.51-2.9-15.94-1.25-23.7.87-11.88,3.23-24.78,8.71-29.27,20.17l13.66-6.44c3.15-1.48,6.56-3,10-2.44,2,.34,3.89,1.39,5.92,1.76,10.32,1.93,18.11-13.54,28.34-11.16"/><path class="cls-6" d="M289.75,520.9c-7.89-9-21.69-12.77-26.1-23.86,0,7,1.7,14.26,5.84,20,3.66,5.08,8.91,8.56,14.36,11.49,3.56,1.91,12.36,8.14,16.21,6.36C298.16,530.49,293.08,524.68,289.75,520.9Z"/><rect class="cls-3" x="248.5" y="422.5" width="207.5" height="108.44" rx="10.93"/><text class="cls-9" transform="translate(290.45 448.84)"><tspan class="cls-10">S</tspan><tspan x="9.44" y="0">pr</tspan><tspan class="cls-11" x="26.28" y="0">a</tspan><tspan x="34.55" y="0">y 1-2 sp</tspan><tspan class="cls-12" x="89.53" y="0">r</tspan><tspan x="96.83" y="0">øjt </tspan><tspan x="-25.16" y="20.88">ud i rummet, på dit tøj </tspan><tspan x="-5.15" y="41.77">eller no</tspan><tspan class="cls-13" x="51.56" y="41.77">g</tspan><tspan x="61" y="41.77">et andet </tspan><tspan x="13.16" y="62.65">tæt </tspan><tspan class="cls-14" x="42.52" y="62.65">v</tspan><tspan x="50.48" y="62.65" xml:space="preserve">ed dig.  </tspan></text><rect class="cls-3" x="249.5" y="386.5" width="64" height="29" rx="4"/><text class="cls-15" transform="translate(265.66 409.8)">02</text><path class="cls-3" d="M481,754.89c7.79-2.07,14.21-7.43,20.79-12.08,24-17,53-25.79,82.12-29.66,5.39-.72,10.83-1.28,16-2.76,2.09-.6,4.13-1.34,6.18-2.08l31.52-11.43"/><path class="cls-6" d="M574.27,695.06c5.26-2,10.92-2.91,15.91-5.5,5.24-2.72,9.39-7.1,13.44-11.41a32.39,32.39,0,0,1-19.74,26.49c-5.85,2.35-12.24,2.91-18.34,4.48-4.69,1.2-16.39,7.77-8.73-1.6A41.74,41.74,0,0,1,574.27,695.06Z"/><path class="cls-6" d="M619.19,686.08C626.31,679,635,673.15,644.86,671A35,35,0,0,1,628,694.67a71.58,71.58,0,0,1-9.43,4.19c-4.36,1.69-10.56,6.76-14.89,7A96.64,96.64,0,0,1,619.19,686.08Z"/><path class="cls-6" d="M616,720.82c9.08,6.49,16.94,14.52,24.75,22.5-.44,1.71-2.93,1.48-4.58.84q-6-2.34-12-5c-4.53-2-9.06-4.12-12.8-7.36-5.25-4.54-9.88-12.13-10.88-19.05C604.38,711.58,612.62,718.44,616,720.82Z"/><path class="cls-6" d="M635.07,698.11c3-3.27,7.85-4.22,12.23-3.65s8.49,2.45,12.6,4.08c10.63,4.21,21.78,6.9,32.9,9.56a51.19,51.19,0,0,0-44.53-15.17c-.37.05-.84.07-1-.25s.54-.65.51-.28"/><path class="cls-6" d="M656.15,678.79c.79-4.93,1-10,2.46-14.76,1.93-6.13,5.95-11.35,9.89-16.42l-.93,9.7c-.26,2.74-.52,5.49-1,8.19-1.71,8.85-6.65,18.9-14.1,24.25A36.34,36.34,0,0,0,656.15,678.79Z"/><path class="cls-6" d="M505.22,740.08l26.37,2.42a17.44,17.44,0,0,0,5.35,0,30.46,30.46,0,0,0,4.39-1.62c7.51-2.9,15.94-1.25,23.71.87,11.87,3.23,24.78,8.71,29.26,20.17l-13.65-6.44c-3.16-1.48-6.56-3-10-2.44-2,.34-3.89,1.39-5.91,1.76-10.33,1.93-18.11-13.54-28.34-11.16"/><path class="cls-6" d="M673.43,666.9c7.88-9,21.68-12.77,26.09-23.86,0,7.05-1.7,14.26-5.83,20-3.67,5.08-8.92,8.56-14.36,11.49-3.57,1.91-12.36,8.14-16.22,6.36C665,676.49,670.1,670.68,673.43,666.9Z"/><rect class="cls-3" x="643.5" y="540.5" width="64" height="29" rx="3.92"/><text class="cls-15" transform="translate(659.47 563.8)">03</text><rect class="cls-3" x="505.5" y="577.5" width="202.5" height="81" rx="11.08"/><text class="cls-16" transform="translate(526.44 611.5)"><tspan class="cls-17">T</tspan><tspan x="9.89" y="0">ag en dyb indånding </tspan><tspan x="27.67" y="20.38">og opl</tspan><tspan class="cls-18" x="72.55" y="20.38">e</tspan><tspan class="cls-19" x="80.55" y="20.38">v </tspan><tspan class="cls-20" x="92.37" y="20.38">r</tspan><tspan class="cls-19" x="99.5" y="20.38">oen. </tspan></text><path class="cls-3" d="M487.2,870.89c-7.79-2.07-14.2-7.43-20.79-12.08-24-17-53-25.79-82.12-29.66-5.39-.72-10.82-1.28-16.05-2.76-2.09-.6-4.13-1.34-6.17-2.08l-31.53-11.43"/><path class="cls-6" d="M393.9,811.06c-5.25-2-10.92-2.91-15.9-5.5-5.24-2.72-9.4-7.1-13.45-11.41a32.41,32.41,0,0,0,19.74,26.49c5.85,2.35,12.24,2.91,18.35,4.48,4.68,1.2,16.39,7.77,8.72-1.6A41.61,41.61,0,0,0,393.9,811.06Z"/><path class="cls-6" d="M349,802.08c-7.13-7.1-15.85-12.93-25.68-15.06a35,35,0,0,0,16.92,23.65,71,71,0,0,0,9.43,4.19c4.35,1.69,10.55,6.76,14.89,7A97.33,97.33,0,0,0,349,802.08Z"/><path class="cls-6" d="M352.22,836.82c-9.08,6.49-16.94,14.52-24.74,22.5.43,1.71,2.93,1.48,4.57.84q6-2.34,12-5c4.52-2,9.06-4.12,12.79-7.36,5.25-4.54,9.89-12.13,10.88-19.05C363.8,827.58,355.55,834.44,352.22,836.82Z"/><path class="cls-6" d="M333.11,814.11c-3-3.27-7.85-4.22-12.24-3.65s-8.48,2.45-12.6,4.08c-10.62,4.21-21.78,6.9-32.89,9.56a51.17,51.17,0,0,1,44.52-15.17c.37.05.84.07,1-.25s-.54-.65-.51-.28"/><path class="cls-6" d="M312,794.79c-.8-4.93-1-10-2.47-14.76-1.93-6.13-5.95-11.35-9.88-16.42l.92,9.7c.26,2.74.52,5.49,1,8.19,1.71,8.85,6.65,18.9,14.1,24.25A36.33,36.33,0,0,1,312,794.79Z"/><path class="cls-6" d="M463,856.08l-26.37,2.42a17.38,17.38,0,0,1-5.34,0,30.58,30.58,0,0,1-4.4-1.62c-7.51-2.9-15.94-1.25-23.7.87-11.88,3.23-24.78,8.71-29.27,20.17l13.66-6.44c3.15-1.48,6.56-3,10-2.44,2,.34,3.89,1.39,5.92,1.76,10.32,1.93,18.11-13.54,28.34-11.16"/><path class="cls-6" d="M294.75,782.9c-7.89-9-21.69-12.77-26.1-23.86,0,7.05,1.7,14.26,5.84,20,3.66,5.08,8.91,8.56,14.36,11.49,3.56,1.91,12.36,8.14,16.21,6.36C303.16,792.49,298.08,786.68,294.75,782.9Z"/><rect class="cls-6" x="252" y="690" width="211" height="107.54" rx="10.81"/><text class="cls-21" transform="translate(291.17 718.83)"><tspan class="cls-22">F</tspan><tspan class="cls-23" x="8.71" y="0">orhold dig </tspan><tspan class="cls-24" x="91.46" y="0">g</tspan><tspan x="101.06" y="0">erne </tspan><tspan class="cls-25" x="2.44" y="21.24">r</tspan><tspan x="9.86" y="21.24">oli</tspan><tspan class="cls-26" x="29.12" y="21.24">g</tspan><tspan class="cls-27" x="39.03" y="21.24">t og tag dybe</tspan><tspan class="cls-28" x="-23.88" y="42.47">v</tspan><tspan x="-15.79" y="42.47">ejrtræknin</tspan><tspan class="cls-29" x="66.41" y="42.47">g</tspan><tspan x="76.01" y="42.47">e</tspan><tspan class="cls-30" x="84.49" y="42.47">r</tspan><tspan class="cls-27" x="91.34" y="42.47">, </tspan><tspan class="cls-31" x="99.31" y="42.47">f</tspan><tspan x="105.02" y="42.47">or </tspan><tspan class="cls-32" x="125.78" y="42.47">a</tspan><tspan class="cls-27" x="134.39" y="42.47">t få </tspan><tspan x="-3.62" y="63.71">den bedste ef</tspan><tspan class="cls-31" x="97.16" y="63.71">f</tspan><tspan x="102.88" y="63.71" xml:space="preserve">ekt.   </tspan></text><rect class="cls-6" x="252" y="656" width="64" height="29" rx="4.2"/><text class="cls-8" transform="translate(267.89 679.3)">04</text></svg>