<svg xmlns="http://www.w3.org/2000/svg" xmlns:xlink="http://www.w3.org/1999/xlink" width="68" height="148" viewBox="0 0 68 148">
  <defs>
    <clipPath id="clip-drops_dark">
      <rect width="68" height="148"/>
    </clipPath>
  </defs>
  <g id="drops_dark" clip-path="url(#clip-drops_dark)">
    <g id="Group_297" data-name="Group 297" transform="translate(2.637 3.72)">
      <path id="Path_84703" data-name="Path 84703" d="M1.8,31.954c-1.726-6.968-2.841-14.472-.343-21.2S11.165-1.424,18.125.333c6.008,1.515,9.82,7.816,10.418,13.983s-1.328,12.271-3.23,18.168c-4.347,13.478-8.749,26.94-13.022,40.44C10.2,58.883,5.182,45.71,1.8,31.954Z" transform="matrix(-1, 0.017, -0.017, -1, 29.922, 72.913)" fill="#fefff2" stroke="#fefff2" stroke-linejoin="round" stroke-miterlimit="10" stroke-width="2"/>
      <path id="Path_84704" data-name="Path 84704" d="M1.176,20.858C.049,16.309-.679,11.412.951,7.019S7.288-.929,11.831.217c3.921.989,6.41,5.1,6.8,9.127s-.867,8.009-2.108,11.859c-2.838,8.8-5.711,17.584-8.5,26.4C6.655,38.435,3.382,29.836,1.176,20.858Z" transform="matrix(-1, 0.017, -0.017, -1, 34.492, 140.233)" fill="#97a671" stroke="#fefff2" stroke-linejoin="round" stroke-miterlimit="10" stroke-width="3"/>
      <path id="Path_84705" data-name="Path 84705" d="M1.436,25.485C.059,19.928-.829,13.943,1.163,8.576S8.9-1.135,14.455.265c4.791,1.208,7.832,6.234,8.309,11.152S21.7,21.2,20.188,25.908C16.721,36.657,13.21,47.393,9.8,58.16,8.132,46.962,4.133,36.456,1.436,25.485Z" transform="matrix(-1, 0.017, -0.017, -1, 62.727, 94.858)" fill="none" stroke="#97a671" stroke-linejoin="round" stroke-miterlimit="10" stroke-width="3"/>
    </g>
  </g>
</svg>
