<svg id="Lag_1" data-name="Lag 1" xmlns="http://www.w3.org/2000/svg" viewBox="0 0 183.26 177.49"><defs><style>.cls-1{fill:#fefff2;}.cls-1,.cls-2{stroke:#998675;stroke-miterlimit:10;}.cls-2{fill:#f5e98a;}</style></defs><path class="cls-1" d="M54.58,101.27a55,55,0,0,0-9.53,2.32c-4.27,1.7-7.86,4.79-12,6.73-3.85,1.79-8.12,2.57-11.93,4.45a22.78,22.78,0,0,0-8.75,7.63c-.83,1.22-1.57,2.7-1.19,4.13.54,2,2.87,2.82,4.5,4.12s2.8,3.58,4.58,5c3.33,2.59,8.05,1.71,12.25,1.27,3.38-.35,6.87-.33,10.05-1.55,4.41-1.7,7.58-5.52,10.81-9a102.38,102.38,0,0,1,13-11.76c3.13-2.37,6.48-4.64,8.65-7.92,2.32-3.5,3.56-11.24-2.65-10.89-2.77.15-5.88,2.16-8.52,3A81.58,81.58,0,0,1,54.58,101.27Z"/><path class="cls-1" d="M25.54,87.74c-2.34-.23-4.92-.51-6.86.84-.69.48-1.24,1.13-1.91,1.63-2.36,1.76-5.63,1.28-8.51,1.88a3.47,3.47,0,0,0-1.9.92c-.78.88-.65,2.22-1.09,3.3-.93,2.28-4.21,3.1-4.71,5.51A3.63,3.63,0,0,0,1,104.29c1.67,2.93,5.64,3.38,9,3.48A129.1,129.1,0,0,0,28,107.48a65.6,65.6,0,0,0,7.48-1.26c2.6-.6,5.16-1.37,7.72-2.13l28.31-8.41c1.69-.5,3.55-1.14,4.4-2.69,1.72-3.17,2.48-9.63-2.06-10.09-4.75-.47-11,2.14-15.73,3A134,134,0,0,1,25.54,87.74Z"/><path class="cls-1" d="M44.11,67.4C33.47,64.12,22,61.69,11.27,64.5a6,6,0,0,0-3.52,1.94,6.5,6.5,0,0,0-.91,2.48L5.22,76.4a8.66,8.66,0,0,0-.29,2.31c.16,2.87,3,4.82,5.74,5.71a39.84,39.84,0,0,0,8.42,1.49,149.13,149.13,0,0,0,23.52.91c9.39-.56,18.63-2.61,27.81-4.65a10.48,10.48,0,0,0,4.84-2c2.55-2.26,1.47-4.27-1.08-4.92-3.29-.84-6.83-1-10.17-1.82C57.27,71.8,50.74,69.44,44.11,67.4Z"/><path class="cls-1" d="M73.37,49.5c-.57-2.38-.63-5-2.23-6.88a10.71,10.71,0,0,0-3.58-2.35,75.1,75.1,0,0,1-19-13.37c-2-2-4.23-4.18-7.05-4.27a16.05,16.05,0,0,1-2.3,0c-1.8-.3-3.2-2.08-5-2-2.07.1-3.16,2.41-4.57,3.93-3,3.24-8.75,3.5-10.76,7.45a7.27,7.27,0,0,0,.83,7.19A16.48,16.48,0,0,0,25.52,44C31.84,47.52,39,49.6,44.86,53.84c4.17,3,7.6,7,12.06,9.58,4.64,2.66,10.2,3.63,14.45,6.88a45.1,45.1,0,0,0,3.94,3.1c6,3.61,8-2.45,6.52-7C79.82,60.36,74.86,55.72,73.37,49.5Z"/><path class="cls-1" d="M74.16,95.63A62.93,62.93,0,0,1,64,105.43c-.14.11-.3.27-.24.43s.39,0,.24-.1"/><path class="cls-1" d="M8.82,76.29a10.11,10.11,0,0,0,10.28.54"/><path class="cls-1" d="M72.73,79.87q-3.3-1.26-6.66-2.37"/><path class="cls-1" d="M15.9,124.27a5.16,5.16,0,0,1,2.6,3.82"/><path class="cls-1" d="M11.49,101.38a36.06,36.06,0,0,1-6,.71"/><path class="cls-1" d="M76.66,89.46a58.55,58.55,0,0,0-9,.84c-2.19.37-4.56,1-5.9,2.78"/><path class="cls-1" d="M25.83,32.18a50.89,50.89,0,0,0,7.65,5.22"/><path class="cls-1" d="M68.8,57.51c.25,2.11,2,3.64,3.47,5.2,2.36,2.55,4.16,5.92,3.75,9.37"/><path class="cls-1" d="M30.87,24.33a10.84,10.84,0,0,1,3.45,3.52"/><path class="cls-1" d="M71.11,119.37a69.35,69.35,0,0,1-2.54,8.69c-1.3,3-3.32,5.63-5.13,8.35A67.88,67.88,0,0,0,53.26,162a15.07,15.07,0,0,0,0,7.16c.73,2.29,2.73,4.35,5.14,4.41,1.65,0,3.33-.82,4.91-.35,2.06.62,3.06,3.23,5.14,3.73,2.3.55,4.22-1.71,5.38-3.76a56.05,56.05,0,0,0,6.92-32.67c-.38-3.85-1.15-7.69-.9-11.54.33-5.28,2.57-10.36,2.45-15.65-.09-3.47-2.56-8.74-6.21-5.09C73.53,110.77,72.07,116,71.11,119.37Z"/><path class="cls-1" d="M97.64,142.56a78.85,78.85,0,0,1-.32,14.25,39.18,39.18,0,0,1-4.79,13.89c-.43.76-1.12,1.62-2,1.45-.54-.11-.9-.59-1.33-.93-3.22-2.59-8.45,3.06-11.77.61-1.45-1.08-1.62-3.18-1.42-5,.65-5.83,3.69-11.19,4.29-17,.48-4.66-.63-9.32-1-14-.68-8.57,1.14-17.11,3-25.51.19-.93.53-2,1.43-2.29,1.25-.39,2.23,1,3,2.09,1.7,2.43,4,3.32,6.69,4.13,3.36,1,3.24,1.59,3.39,5.27C97.06,127.21,97.34,134.88,97.64,142.56Z"/><path class="cls-1" d="M89.12,52.61c-1.17-3.2-2.62-6.3-3.7-9.53-1.87-5.63-2.6-11.57-3.85-17.37S78.46,14.06,74.7,9.48,64.92,1.77,59.08,2.82a17.87,17.87,0,0,1-9.92,13.24,6.61,6.61,0,0,0-2,1.19,3.88,3.88,0,0,0-1,2.38c-.37,4.39,3.72,7.73,7.38,10.2L66.3,38.45a20.16,20.16,0,0,1,5,4.29A20.05,20.05,0,0,1,74,48.49l3.08,9.15a27.92,27.92,0,0,0,3.45,7.62C82.73,68.33,89.36,72,92,67.17,93.88,63.73,90.3,55.82,89.12,52.61Z"/><path class="cls-1" d="M105.91,37.91a142.25,142.25,0,0,0-2.31-15.06c-1.27-6.45-2.84-13.06-6.69-18.4A9.76,9.76,0,0,0,92.75.83,4.47,4.47,0,0,0,87.66,2c-.59.79-.83,1.8-1.47,2.54-2.13,2.45-7,.43-8.91,3.1a4.08,4.08,0,0,0-.62,1.94,14.69,14.69,0,0,0,.92,5.57L92.15,63.75a9.45,9.45,0,0,0,1.66,3.59c1.73,2,5.59,2.52,8,1.59,3.08-1.18,2.9-5.42,3.38-8.56A93.28,93.28,0,0,0,105.91,37.91Z"/><path class="cls-1" d="M112.22,133.48c2.65,5.41,5.29,10.81,7.76,16.29,2.29,5.06,4.47,10.53,3.57,16-1.4,1.17-3.64.39-5.24,1.26a7.52,7.52,0,0,0-1.64,1.45c-2.3,2.32-6.53,3.36-8.71.91-1.35-1.52-1.4-3.79-2.3-5.62-1.41-2.89-4.73-4.35-6.56-7s-1.92-6.36-1.87-9.71l.39-26.36a8.05,8.05,0,0,1,.3-2.5,4.14,4.14,0,0,1,3.56-2.64c2.49-.09,2.7,1.43,3.67,3.44C107.48,123.84,109.87,128.66,112.22,133.48Z"/><path class="cls-1" d="M137,143.5a20,20,0,0,1,3.5,4.56c1.68,3.36,1.33,7.36,2.41,10.95.53,1.75,1.4,3.48,1.23,5.3s-2.08,3.62-3.72,2.82c-1.23-.61-1.51-2.18-1.87-3.51s-1.37-2.82-2.71-2.54c-1.17.24-1.67,1.7-2.75,2.24-1.36.68-2.94-.37-4.47-.43-1.13,0-2.29.46-3.36.1-1.9-.63-2-3.2-2.18-5.2-.6-7.81-6.79-13.9-10-21.06-1.75-3.94-2.62-8.29-5-11.9-1.31-2-3.09-3.86-3.57-6.22-.72-3.51,2.33-6,5.27-4.11,3.32,2.16,6.22,6.62,8.93,9.52Z"/><path class="cls-1" d="M150,119.43c8.57,4.09,17.25,9.15,22,17.34a9,9,0,0,1,1.47,4.39,3.91,3.91,0,0,1-2.29,3.74c-1.39.5-2.9-.08-4.35-.36a10.79,10.79,0,0,0-8.24,1.81,6.56,6.56,0,0,1-2.64,1.51c-1.33.21-2.56-.66-3.83-1.14-2.94-1.11-6.28-.1-9.38-.69s-5.7-2.72-8.13-4.78c-7.87-6.67-15.89-13.53-21-22.49-1.15-2-2.16-4.24-2-6.54.79-8.9,12.33-3.1,16.89-1.53A206.32,206.32,0,0,1,150,119.43Z"/><path class="cls-1" d="M150.74,90.71a48.61,48.61,0,0,1,10.85.57,14.14,14.14,0,0,1,7.9,4c2,2.25,2.8,5.74,1.32,8.36a10.64,10.64,0,0,1-2.39,2.67c-5.76,5-12.88,9-20.55,9.22-5.1.11-10.08-1.48-14.92-3.11q-8.23-2.78-16.37-5.8a4,4,0,0,1-1.65-1,3.93,3.93,0,0,1-.63-2.58,17.56,17.56,0,0,1,.62-5.83c2-6,10.67-5,15.75-5.43Q140.69,91,150.74,90.71Z"/><path class="cls-1" d="M148.54,74.29a32.56,32.56,0,0,1,5.62-2.35,66.79,66.79,0,0,1,17.6-3.32c1.79-.09,4,.18,4.64,1.86.44,1.22-.25,2.53-.3,3.82A3.9,3.9,0,0,0,178.51,78c1.59.63,4,.61,4.24,2.31a2.71,2.71,0,0,1-.34,1.46c-2.48,5.27-8,8.38-13.41,10.52a6.57,6.57,0,0,1-2.41.59,9,9,0,0,1-3.65-1.27c-3.84-1.78-8.22-1.78-12.45-1.75-6,0-12,.09-17.93.51-2.47.18-14.17,3.22-15.65.93-1.29-2,12.92-5.47,14.94-6.35C138.06,82.23,142.72,77.52,148.54,74.29Z"/><path class="cls-1" d="M154.75,48.13a60.63,60.63,0,0,1,4.91-4c.68,2.25,1.72,4.86,4,5.4,1.46.34,2.94-.31,4.41-.62s3.33-.11,4,1.25-.4,2.94-1.41,4.1a137.46,137.46,0,0,1-13.86,13.55,98,98,0,0,1-13.24,9.71c-8.53,5.09-18,8.32-27.42,11.51.81-.27,3.2-3.53,4.21-4.28a60.19,60.19,0,0,0,5.18-4.4,126.54,126.54,0,0,0,9.92-10.66C141.67,62.34,147.55,54.59,154.75,48.13Z"/><path class="cls-1" d="M132.28,37.47c2.57,1.2,1.84,5,2.58,7.73s3.28,4.66,5.38,6.65,4,4.85,3.11,7.59a8.62,8.62,0,0,1-1.71,2.68,193.32,193.32,0,0,1-19.92,20.55,7.79,7.79,0,0,1-2.8,1.82,2.69,2.69,0,0,1-3-.87c-.79-1.22-.11-3-.9-4.2-.56-.85-1.71-1.17-2.3-2-.77-1.07,9.56-15.91,10.75-18.23A134.65,134.65,0,0,0,132.28,37.47Z"/><path class="cls-1" d="M112.76,14.48c1-2.31,2-4.74,4-6.3,2.72-2.16,6.52-2.16,10-2.06a8.1,8.1,0,0,1,3.32.56c2.28,1.11,3,4,3.39,6.45.94,5.57,1.81,11.3.66,16.83a48.42,48.42,0,0,1-2.64,7.92c-5.17,12.9-10.43,26-18.58,37.21q-3.81-1.71-7.53-3.6a4.66,4.66,0,0,1-1.54-1.08c-.86-1-.63-2.58-.34-3.91,2.08-9.83,3.88-19.14,2.18-29.17C104.32,29.55,109.84,21.52,112.76,14.48Z"/><path class="cls-2" d="M115.1,79.17A27.22,27.22,0,0,0,87.31,67.45a10.75,10.75,0,0,0-4.8,2,10.93,10.93,0,0,0-2.27,2.91,30.14,30.14,0,0,0,11.12,41.43,11.68,11.68,0,0,0,3.15,1.34,14.77,14.77,0,0,0,4.74,0l5.78-.57a11.14,11.14,0,0,0,3.48-.73,9,9,0,0,0,3.59-3.45c2.53-3.9,3.75-8.49,4.64-13,1-4.91,1.52-10.13-.32-14.78s-6.09-8.26-10.13-11.49"/></svg>