<svg id="Lag_1" data-name="Lag 1" xmlns="http://www.w3.org/2000/svg" viewBox="0 0 125.51 61.21"><defs><style>.cls-1{isolation:isolate;}.cls-2{fill:#a2b586;}.cls-3{fill:#9aaf87;stroke:#eef3d8;stroke-miterlimit:10;stroke-width:0.5px;}</style></defs><g id="sind-5"><g class="cls-1"><path class="cls-2" d="M14.2,57.78a7.61,7.61,0,0,0,2.68-.5,5.92,5.92,0,0,0,2.36-1.63,8.63,8.63,0,0,0,1.68-3,13.59,13.59,0,0,0,.65-4.48,11.78,11.78,0,0,0-1.41-5.54,31.77,31.77,0,0,0-3.53-5.28Q14.5,34.78,12,32.22C10.4,30.51,8.87,28.76,7.46,27a30.58,30.58,0,0,1-3.54-5.51,13.12,13.12,0,0,1-1.41-5.92A13.3,13.3,0,0,1,3.65,10,12.73,12.73,0,0,1,6.74,5.72,14.12,14.12,0,0,1,11.29,3a16.19,16.19,0,0,1,5.56-1,21.78,21.78,0,0,1,5.62.66,14.76,14.76,0,0,1,4.18,1.8,8.1,8.1,0,0,1,2.6,2.69,6.58,6.58,0,0,1,.88,3.28,6.31,6.31,0,0,1-.24,1.68,5.11,5.11,0,0,1-.75,1.58A4.46,4.46,0,0,1,27.85,15a3.51,3.51,0,0,1-1.83.47,2.18,2.18,0,0,1-1.85-.76,5.18,5.18,0,0,1-.89-1.89c-.19-.75-.35-1.57-.49-2.46a11.06,11.06,0,0,0-.64-2.46A4.81,4.81,0,0,0,20.82,6a3.84,3.84,0,0,0-2.58-.76,4.4,4.4,0,0,0-1.82.4,5,5,0,0,0-1.63,1.24A6.37,6.37,0,0,0,13.62,9a9.58,9.58,0,0,0-.44,3A9.76,9.76,0,0,0,14,16a19.6,19.6,0,0,0,2.24,3.82,40.81,40.81,0,0,0,3.18,3.77c1.18,1.26,2.4,2.53,3.63,3.8s2.45,2.6,3.63,3.94a34.61,34.61,0,0,1,3.18,4.2,22.09,22.09,0,0,1,2.24,4.55,14.66,14.66,0,0,1,.85,5,15.29,15.29,0,0,1-1.48,6.85,14.93,14.93,0,0,1-4,5.06,18,18,0,0,1-5.93,3.14,23.8,23.8,0,0,1-7.24,1.09,19.76,19.76,0,0,1-6.13-.87,14.75,14.75,0,0,1-4.5-2.29A9.85,9.85,0,0,1,.93,54.8,8.13,8.13,0,0,1,0,51.05,6.65,6.65,0,0,1,.25,49.3,6.26,6.26,0,0,1,1,47.59a4.56,4.56,0,0,1,1.24-1.31A3,3,0,0,1,4,45.75a2.54,2.54,0,0,1,1.65.51,3.52,3.52,0,0,1,1,1.36,9.62,9.62,0,0,1,.61,1.94c.16.72.33,1.46.51,2.2A20.91,20.91,0,0,0,8.42,54a6.88,6.88,0,0,0,1.12,1.94,5.23,5.23,0,0,0,1.84,1.36A6.84,6.84,0,0,0,14.2,57.78Z"/><path class="cls-2" d="M50.24,49.79a4.2,4.2,0,0,1-.16,1.07,2.53,2.53,0,0,1-.71,1.19,4.31,4.31,0,0,1-1.61,1,8.49,8.49,0,0,1-2.86.4A7.59,7.59,0,0,1,42.08,53a4.18,4.18,0,0,1-1.52-1,2.56,2.56,0,0,1-.63-1.19,5.43,5.43,0,0,1-.12-1V23.57a3.1,3.1,0,0,0-.46-1.71,1.68,1.68,0,0,0-1.55-.73,2.25,2.25,0,0,0-1,.2,5.29,5.29,0,0,0-.88.58l-.72-.85A19.83,19.83,0,0,1,37,19.79a13.83,13.83,0,0,1,2.09-1.11,14.47,14.47,0,0,1,2.41-.78,12,12,0,0,1,2.72-.31,7.93,7.93,0,0,1,3.43.6,4.27,4.27,0,0,1,1.8,1.46,4.16,4.16,0,0,1,.7,1.85,14.66,14.66,0,0,1,.12,1.73Z"/><path class="cls-2" d="M78.77,35.94a47.61,47.61,0,0,0-.39-6.85,14.25,14.25,0,0,0-1-3.9,3.71,3.71,0,0,0-1.43-1.77A3.32,3.32,0,0,0,74.32,23a3,3,0,0,0-1.75.52,6.41,6.41,0,0,0-1.33,1.21,9.58,9.58,0,0,0-.95,1.36,9.22,9.22,0,0,1-.66,1V49.79a5.83,5.83,0,0,1-.13,1.07,2.61,2.61,0,0,1-.67,1.19,4,4,0,0,1-1.56,1,8.28,8.28,0,0,1-2.84.4A7.68,7.68,0,0,1,61.6,53,4.48,4.48,0,0,1,60,52a2.6,2.6,0,0,1-.68-1.19,4.93,4.93,0,0,1-.14-1V23.57a3.1,3.1,0,0,0-.46-1.71,1.66,1.66,0,0,0-1.54-.73,2.3,2.3,0,0,0-1,.2,5.74,5.74,0,0,0-.88.58l-.71-.85a18.45,18.45,0,0,1,1.75-1.27,13.36,13.36,0,0,1,2.09-1.11,14.17,14.17,0,0,1,2.41-.78,11.91,11.91,0,0,1,2.71-.31,6.71,6.71,0,0,1,3.44.74,4.87,4.87,0,0,1,1.8,1.74,5.55,5.55,0,0,1,.69,2.13,17.49,17.49,0,0,1,.12,1.85,18.78,18.78,0,0,1,2.85-3.23,14.87,14.87,0,0,1,1.45-1.19,12.6,12.6,0,0,1,1.7-1,9.46,9.46,0,0,1,1.9-.73,7.86,7.86,0,0,1,2-.28,9.12,9.12,0,0,1,4.1.89,7.31,7.31,0,0,1,3,2.95,17,17,0,0,1,1.87,5.49,46.58,46.58,0,0,1,.65,8.47A36.43,36.43,0,0,1,88.31,44,24.34,24.34,0,0,1,86,50.13a15.89,15.89,0,0,1-3.22,4.16,16.94,16.94,0,0,1-3.64,2.54,14.83,14.83,0,0,1-3.51,1.27,16.16,16.16,0,0,1-2.91.39l-.37-1.39a6.61,6.61,0,0,0,1.88-.75,5.27,5.27,0,0,0,1.58-1.49,9.87,9.87,0,0,0,1.26-2.5A23.07,23.07,0,0,0,78,48.57a49,49,0,0,0,.58-5.38Q78.77,40.08,78.77,35.94Z"/><path class="cls-2" d="M114.67,19.46a35.35,35.35,0,0,0-1.8-6.33,21.28,21.28,0,0,0-2.77-5.08,12.62,12.62,0,0,0-3.67-3.36A8.46,8.46,0,0,0,102,3.46a8.55,8.55,0,0,0-2.46.34,10.18,10.18,0,0,0-1.92.8,9.71,9.71,0,0,0-1.34.89l-.77.62-.88-1.19a11.22,11.22,0,0,1,2-2,12.55,12.55,0,0,1,2.56-1.57,16,16,0,0,1,2.94-1A13,13,0,0,1,105.19,0,17.37,17.37,0,0,1,114,2.19a18.37,18.37,0,0,1,6.36,6.2,30.51,30.51,0,0,1,3.83,9.68,56.27,56.27,0,0,1,1.3,12.6,38.14,38.14,0,0,1-1.14,9.85,21.19,21.19,0,0,1-3.25,7.12A13.51,13.51,0,0,1,116,52a15.46,15.46,0,0,1-6.77,1.45,16.27,16.27,0,0,1-5.32-.94,13.15,13.15,0,0,1-4.89-3,15.62,15.62,0,0,1-3.58-5.52,22.16,22.16,0,0,1-1.4-8.37,22.14,22.14,0,0,1,1.21-7.61A17,17,0,0,1,98.5,22.3a13.75,13.75,0,0,1,10.4-4.71,10.73,10.73,0,0,1,2.07.19,9.85,9.85,0,0,1,1.59.46,7.33,7.33,0,0,1,1.19.59C114.09,19.05,114.4,19.26,114.67,19.46Zm.41,14.95V32.9c0-.76,0-1.63-.07-2.62s-.12-2-.24-3.14a19.83,19.83,0,0,0-.54-3.09,12.07,12.07,0,0,0-1.82-1.89,3.9,3.9,0,0,0-2.56-.83c-1.77,0-3.07,1.16-3.89,3.46s-1.24,5.89-1.24,10.74a52.31,52.31,0,0,0,.29,5.84,23.7,23.7,0,0,0,.88,4.55,8.11,8.11,0,0,0,1.53,3,2.87,2.87,0,0,0,2.22,1Q115.09,49.93,115.08,34.41Z"/></g></g><path class="cls-3" d="M44.27,15A9.44,9.44,0,0,0,54.82,9a14.11,14.11,0,0,0-5.49.69A10.53,10.53,0,0,0,44.27,15Z"/><path class="cls-3" d="M44.54,15A9.44,9.44,0,0,1,34,9a14.06,14.06,0,0,1,5.49.69A10.45,10.45,0,0,1,44.54,15Z"/><path class="cls-3" d="M44.11,14.74A9.46,9.46,0,0,0,50.32,4.31a14,14,0,0,0-4.44,3.31A10.48,10.48,0,0,0,44.11,14.74Z"/><path class="cls-3" d="M44.61,14.84a9.6,9.6,0,0,1-5-4.09,9.5,9.5,0,0,1-1.2-6.34,14,14,0,0,1,4.43,3.3A10.52,10.52,0,0,1,44.61,14.84Z"/><path class="cls-3" d="M44.16,14.74a9.54,9.54,0,0,0,2.31-6,9.58,9.58,0,0,0-2.11-6.1,14.06,14.06,0,0,0-2.21,5.07A10.53,10.53,0,0,0,44.16,14.74Z"/></svg>